<svg width="50" height="50" viewBox="0 0 50 50" fill="none" xmlns="http://www.w3.org/2000/svg">
<path d="M23.4375 4.6875H25V7.03125H23.4375V4.6875Z" fill="#C4935C"/>
<path d="M7.8125 4.6875H9.375V7.03125H7.8125V4.6875Z" fill="#C4935C"/>
<path d="M39.8438 4.6875H41.4062V7.03125H39.8438V4.6875Z" fill="#C4935C"/>
<path d="M20.3125 32.0312V32.6229C20.3151 33.5715 20.1295 34.5113 19.7665 35.3877C19.4035 36.2641 18.8702 37.0598 18.1976 37.7288C17.3795 38.5425 16.7308 39.5104 16.2892 40.5765C15.8476 41.6426 15.6219 42.7857 15.625 43.9396V47.6562C15.625 47.8634 15.7073 48.0622 15.8539 48.2087C16.0004 48.3552 16.1991 48.4375 16.4063 48.4375H32.0313C32.2385 48.4375 32.4372 48.3552 32.5837 48.2087C32.7302 48.0622 32.8125 47.8634 32.8125 47.6562V43.9396C32.8157 42.7857 32.5899 41.6426 32.1483 40.5765C31.7068 39.5104 31.0581 38.5425 30.2399 37.7288C29.5673 37.0598 29.0341 36.2641 28.671 35.3877C28.308 34.5113 28.1224 33.5715 28.125 32.6229V32.0312C28.125 31.8241 28.0427 31.6253 27.8962 31.4788C27.7497 31.3323 27.551 31.25 27.3438 31.25H26.6146L28.1234 7.86276C28.1245 7.84607 28.125 7.82929 28.125 7.8125V2.34375C28.125 2.13655 28.0427 1.93784 27.8962 1.79133C27.7497 1.64481 27.551 1.5625 27.3438 1.5625H21.0938C20.8866 1.5625 20.6879 1.64481 20.5414 1.79133C20.3948 1.93784 20.3125 2.13655 20.3125 2.34375V7.8125C20.3125 7.82929 20.3131 7.84607 20.3142 7.86276L21.823 31.25H21.0938C20.8866 31.25 20.6879 31.3323 20.5414 31.4788C20.3948 31.6253 20.3125 31.8241 20.3125 32.0312ZM29.1351 38.8337C29.8077 39.5027 30.341 40.2984 30.704 41.1748C31.067 42.0512 31.2526 42.991 31.25 43.9396V46.875H17.1875V43.9396C17.1849 42.991 17.3705 42.0512 17.7335 41.1748C18.0966 40.2984 18.6298 39.5027 19.3024 38.8337C20.9086 37.2365 21.8305 35.0772 21.873 32.8125H26.5645C26.6071 35.0772 27.529 37.2365 29.1351 38.8337ZM21.875 3.125H26.5625V7.78732L25.0488 31.25H23.3888L21.875 7.78732V3.125Z" fill="#C4935C"/>
<path d="M18.75 41.4062H20.3125V45.3125H18.75V41.4062Z" fill="#C4935C"/>
<path d="M21.875 39.8438H23.4375V45.3125H21.875V39.8438Z" fill="#C4935C"/>
<path d="M25 39.8438H26.5625V45.3125H25V39.8438Z" fill="#C4935C"/>
<path d="M28.125 41.4062H29.6875V45.3125H28.125V41.4062Z" fill="#C4935C"/>
<path d="M8.59375 48.4375C10.2508 48.4356 11.8394 47.7765 13.0111 46.6049C14.1828 45.4332 14.8419 43.8445 14.8438 42.1875V37.5C14.8423 36.2596 14.4723 35.0475 13.7807 34.0178C13.0891 32.988 12.1071 32.187 10.9594 31.7163L12.4984 7.86276C12.4995 7.84607 12.5 7.82929 12.5 7.8125V2.34375C12.5 2.13655 12.4177 1.93784 12.2712 1.79133C12.1247 1.64481 11.926 1.5625 11.7188 1.5625H5.46875C5.26155 1.5625 5.06284 1.64481 4.91633 1.79133C4.76981 1.93784 4.6875 2.13655 4.6875 2.34375V7.8125C4.6875 7.82929 4.68802 7.84607 4.68912 7.86276L6.22807 31.7163C5.08036 32.187 4.09838 32.988 3.40679 34.0178C2.7152 35.0475 2.34519 36.2596 2.34375 37.5V42.1875C2.34562 43.8445 3.0047 45.4332 4.1764 46.6049C5.3481 47.7765 6.93672 48.4356 8.59375 48.4375ZM6.25 7.78732V3.125H10.9375V7.78732L9.42016 31.3063C8.87178 31.2312 8.31572 31.2312 7.76734 31.3063L6.25 7.78732ZM3.90625 37.5C3.90625 36.2568 4.40011 35.0645 5.27919 34.1854C6.15826 33.3064 7.35055 32.8125 8.59375 32.8125C9.83695 32.8125 11.0292 33.3064 11.9083 34.1854C12.7874 35.0645 13.2812 36.2568 13.2812 37.5V42.1875C13.2812 43.4307 12.7874 44.623 11.9083 45.5021C11.0292 46.3811 9.83695 46.875 8.59375 46.875C7.35055 46.875 6.15826 46.3811 5.27919 45.5021C4.40011 44.623 3.90625 43.4307 3.90625 42.1875V37.5Z" fill="#C4935C"/>
<path d="M11.7188 42.1875V36.7188H10.1562V42.1875C10.1558 42.6018 9.991 42.9989 9.69808 43.2918C9.40516 43.5848 9.00801 43.7495 8.59375 43.75H7.03125V45.3125H8.59375C9.42226 45.3116 10.2166 44.982 10.8024 44.3962C11.3883 43.8103 11.7178 43.016 11.7188 42.1875Z" fill="#C4935C"/>
<path d="M40.625 48.4375C42.4892 48.4354 44.2764 47.6939 45.5945 46.3758C46.9127 45.0576 47.6542 43.2704 47.6562 41.4062V39.8438C47.6553 39.0152 47.3258 38.2209 46.7399 37.6351C46.1541 37.0492 45.3598 36.7197 44.5312 36.7188C44.1191 36.7182 43.7238 36.555 43.4313 36.2646C43.1388 35.9742 42.9728 35.5801 42.9693 35.1679L44.53 7.85704C44.5308 7.84225 44.5312 7.82738 44.5312 7.8125V2.34375C44.5312 2.13655 44.4489 1.93784 44.3024 1.79133C44.1559 1.64481 43.9572 1.5625 43.75 1.5625H37.5C37.2928 1.5625 37.0941 1.64481 36.9476 1.79133C36.8011 1.93784 36.7188 2.13655 36.7188 2.34375V7.8125C36.7188 7.82738 36.7192 7.84225 36.72 7.85704L38.2807 35.1679C38.2772 35.5801 38.1112 35.9742 37.8187 36.2646C37.5262 36.555 37.1309 36.7182 36.7188 36.7188C35.8902 36.7197 35.0959 37.0492 34.5101 37.6351C33.9242 38.2209 33.5947 39.0152 33.5938 39.8438V41.4062C33.5958 43.2704 34.3373 45.0576 35.6555 46.3758C36.9736 47.6939 38.7608 48.4354 40.625 48.4375ZM40.625 46.875C39.3868 46.8732 38.1857 46.452 37.2177 45.68C36.2497 44.908 35.5718 43.8307 35.2946 42.6239C35.735 42.8509 36.2233 42.9691 36.7188 42.9688H44.5312C45.0267 42.9691 45.515 42.8509 45.9554 42.6239C45.6782 43.8307 45.0003 44.908 44.0323 45.68C43.0643 46.452 41.8632 46.8732 40.625 46.875ZM38.2812 3.125H42.9688V7.79018L41.4496 34.375H39.8004L38.2812 7.79018V3.125ZM36.7188 38.2812C37.4114 38.2804 38.0841 38.0498 38.6317 37.6257C39.1793 37.2016 39.5708 36.6079 39.7449 35.9375H41.5051C41.6792 36.6079 42.0707 37.2016 42.6183 37.6257C43.1659 38.0498 43.8386 38.2804 44.5312 38.2812C44.9457 38.2812 45.3431 38.4459 45.6361 38.7389C45.9291 39.0319 46.0938 39.4293 46.0938 39.8438C46.0938 40.2582 45.9291 40.6556 45.6361 40.9486C45.3431 41.2416 44.9457 41.4062 44.5312 41.4062H36.7188C36.3043 41.4062 35.9069 41.2416 35.6139 40.9486C35.3209 40.6556 35.1562 40.2582 35.1562 39.8438C35.1562 39.4293 35.3209 39.0319 35.6139 38.7389C35.9069 38.4459 36.3043 38.2812 36.7188 38.2812Z" fill="#C4935C"/>
</svg>
