<svg width="40" height="50" viewBox="0 0 40 50" fill="none" xmlns="http://www.w3.org/2000/svg">
<path d="M38.9337 10.1236L20.1415 0.110175C19.8627 -0.038617 19.5286 -0.0365288 19.2519 0.115396L0.979673 10.1288C0.68 10.2933 0.494141 10.6076 0.494141 10.9496V24.0297C0.505104 34.7819 6.8755 44.5092 16.7271 48.8169L19.2634 49.9221C19.5004 50.0255 19.7703 50.026 20.0078 49.9232L22.8657 48.689C32.9 44.4748 39.4281 34.6534 39.4291 23.7702V10.9496C39.4291 10.6039 39.2386 10.286 38.9337 10.1236V10.1236ZM37.558 23.7702C37.5559 33.9032 31.4763 43.0464 22.1332 46.9677L22.1269 46.9708L19.6382 48.0453L17.4758 47.1019C8.30547 43.0923 2.37519 34.0384 2.36474 24.0297V11.5035L19.7076 1.99853L37.558 11.5103V23.7702Z" fill="#C4935C"/>
<path d="M12.8053 23.4232C12.4696 23.03 11.8791 22.9836 11.486 23.3193C11.0929 23.6544 11.0464 24.2454 11.3821 24.638L16.3241 30.4253C16.654 30.8116 17.232 30.8643 17.6256 30.5438L29.1353 21.1798C29.5363 20.854 29.5969 20.2646 29.2706 19.8636C28.9448 19.4632 28.3554 19.4021 27.9544 19.7284L17.1537 28.515L12.8053 23.4232Z" fill="#C4935C"/>
</svg>
